<?xml version="1.0" encoding="UTF-8" standalone="no"?>
<svg
   version="1.1"
   id="Capa_1"
   x="0px"
   y="0px"
   width="251.598px"
   height="251.598px"
   viewBox="0 0 251.598 251.598"
   style="enable-background:new 0 0 251.598 251.598;"
   xml:space="preserve"
   sodipodi:docname="favicon.svg"
   inkscape:version="1.1 (c68e22c387, 2021-05-23)"
   xmlns:inkscape="http://www.inkscape.org/namespaces/inkscape"
   xmlns:sodipodi="http://sodipodi.sourceforge.net/DTD/sodipodi-0.dtd"
   xmlns="http://www.w3.org/2000/svg"
   xmlns:svg="http://www.w3.org/2000/svg"
   xmlns:rdf="http://www.w3.org/1999/02/22-rdf-syntax-ns#"
   xmlns:cc="http://creativecommons.org/ns#"
   xmlns:dc="http://purl.org/dc/elements/1.1/">
  <metadata
   id="metadata85">
    <rdf:RDF>
      <cc:Work
   rdf:about="">
        <dc:format>image/svg+xml</dc:format>
        <dc:type
   rdf:resource="http://purl.org/dc/dcmitype/StillImage" />
      </cc:Work>
    </rdf:RDF>
  </metadata>
  <defs
   id="defs83" />
  <sodipodi:namedview
   pagecolor="#ffffff"
   bordercolor="#666666"
   borderopacity="1"
   objecttolerance="10"
   gridtolerance="10"
   guidetolerance="10"
   inkscape:pageopacity="0"
   inkscape:pageshadow="2"
   inkscape:window-width="1503"
   inkscape:window-height="933"
   id="namedview81"
   showgrid="false"
   inkscape:zoom="2.3888932"
   inkscape:cx="-6.6976623"
   inkscape:cy="132.27883"
   inkscape:window-x="0"
   inkscape:window-y="0"
   inkscape:window-maximized="1"
   inkscape:current-layer="g67"
   inkscape:pagecheckerboard="true" />
  <g
   id="g48">
    <g
   id="g46"
   style="fill:#ffffff;fill-opacity:1">
      <g
   id="g67"
   style="fill:#ffffff">
        
        
        
        
        
        
        
        
        
        
        
        
        
        
        
        
        
        
        
        
        
        <g
   id="g53"
   style="fill:#d45500"><polygon
     points="47.174,97.049 68.142,60.733 26.208,60.733 "
     id="polygon2"
     style="fill:#d45500;fill-opacity:1" /><polygon
     points="41.934,100.076 20.968,63.76 0,100.076 "
     id="polygon4"
     style="fill:#d45500;fill-opacity:1" /><polygon
     points="199.181,100.076 178.216,63.76 157.25,100.076 "
     id="polygon6"
     style="fill:#d45500;fill-opacity:1" /><polygon
     points="251.598,100.076 230.626,63.76 209.667,100.076 "
     id="polygon8"
     style="fill:#d45500;fill-opacity:1" /><polygon
     points="209.667,106.128 230.626,142.444 251.598,106.128 "
     id="polygon10"
     style="fill:#d45500;fill-opacity:1" /><polygon
     points="178.216,142.444 199.181,106.128 157.25,106.128 "
     id="polygon12"
     style="fill:#d45500;fill-opacity:1" /><polygon
     points="125.799,142.444 146.765,106.128 104.833,106.128 "
     id="polygon14"
     style="fill:#d45500;fill-opacity:1" /><polygon
     points="52.417,106.128 73.382,142.444 94.351,106.128 "
     id="polygon16"
     style="fill:#d45500;fill-opacity:1" /><polygon
     points="41.934,106.128 0,106.128 20.968,142.444 "
     id="polygon18"
     style="fill:#d45500;fill-opacity:1" /><polygon
     points="47.174,109.155 26.208,145.47 68.142,145.47 "
     id="polygon20"
     style="fill:#d45500;fill-opacity:1" /><polygon
     points="78.625,145.47 120.556,145.47 99.59,109.155 "
     id="polygon22"
     style="fill:#d45500;fill-opacity:1" /><polygon
     points="131.042,145.47 172.973,145.47 152.007,109.155 "
     id="polygon24"
     style="fill:#d45500;fill-opacity:1" /><polygon
     points="204.424,109.155 183.458,145.47 225.39,145.47 "
     id="polygon26"
     style="fill:#d45500;fill-opacity:1" /><polygon
     points="68.142,54.681 47.174,18.365 26.208,54.681 "
     id="polygon28"
     style="fill:#d45500;fill-opacity:1" /><polygon
     points="172.973,151.523 131.042,151.523 152.007,187.838 "
     id="polygon30"
     style="fill:#d45500;fill-opacity:1" /><polygon
     points="120.556,151.523 78.625,151.523 99.59,187.838 "
     id="polygon32"
     style="fill:#d45500;fill-opacity:1" /><polygon
     points="68.142,151.523 26.208,151.523 47.174,187.838 "
     id="polygon34"
     style="fill:#d45500;fill-opacity:1" /><polygon
     points="73.382,154.549 52.417,190.865 94.351,190.865 "
     id="polygon36"
     style="fill:#d45500;fill-opacity:1" /><polygon
     points="125.799,154.549 104.833,190.865 146.765,190.865 "
     id="polygon38"
     style="fill:#d45500;fill-opacity:1" /><polygon
     points="178.216,154.549 157.25,190.865 199.181,190.865 "
     id="polygon40"
     style="fill:#d45500;fill-opacity:1" /><polygon
     points="157.25,196.917 178.216,233.233 199.181,196.917 "
     id="polygon42"
     style="fill:#d45500;fill-opacity:1" /><polygon
     points="52.417,196.917 73.382,233.233 94.351,196.917 "
     id="polygon44"
     style="fill:#d45500;fill-opacity:1" /></g>
      </g>
    </g>
  </g>
</svg>
