<?xml version="1.0" standalone="no"?>
<!DOCTYPE svg PUBLIC "-//W3C//DTD SVG 20010904//EN"
 "http://www.w3.org/TR/2001/REC-SVG-20010904/DTD/svg10.dtd">
<svg version="1.0" xmlns="http://www.w3.org/2000/svg"
 width="700.000000pt" height="700.000000pt" viewBox="0 0 700.000000 700.000000"
 preserveAspectRatio="xMidYMid meet">
<metadata>
Created by potrace 1.14, written by Peter Selinger 2001-2017
</metadata>
<g transform="translate(0.000000,700.000000) scale(0.100000,-0.100000)"
fill="#000000" stroke="none">
<path d="M1264 6407 c-22 -39 -94 -164 -159 -277 -215 -372 -375 -651 -375
-653 0 -4 1152 2 1156 6 3 3 -67 130 -160 290 -57 99 -320 554 -361 625 -25
45 -50 82 -53 82 -4 0 -25 -33 -48 -73z"/>
<path d="M733 5303 c3 -5 130 -224 282 -488 153 -264 282 -487 289 -496 9 -14
36 28 161 244 83 142 163 282 179 311 40 72 54 96 78 136 101 173 168 289 168
294 0 3 -261 6 -581 6 -319 0 -578 -3 -576 -7z"/>
<path d="M527 5129 c-94 -162 -504 -873 -515 -894 -10 -20 -7 -20 569 -20 318
0 579 3 579 6 0 3 -56 102 -123 220 -68 118 -131 228 -141 244 -9 17 -26 46
-37 65 -12 19 -75 130 -142 245 -66 116 -124 214 -128 219 -4 4 -32 -34 -62
-85z"/>
<path d="M4801 4952 c-85 -147 -166 -287 -181 -312 -53 -88 -229 -395 -234
-410 -6 -13 63 -15 574 -15 319 0 580 1 580 2 0 1 -19 35 -43 75 -24 40 -46
80 -50 88 -4 8 -13 24 -20 35 -7 11 -42 72 -78 135 -37 63 -133 230 -215 370
-81 140 -152 265 -158 277 -6 13 -13 23 -16 23 -3 0 -74 -120 -159 -268z"/>
<path d="M6308 5039 c-58 -101 -120 -209 -137 -239 -18 -30 -36 -62 -41 -70
-10 -16 -58 -99 -95 -165 -13 -22 -62 -107 -109 -189 -47 -82 -86 -151 -86
-155 0 -3 259 -6 575 -6 316 0 575 4 575 8 0 5 -53 102 -119 215 -263 458
-427 740 -441 762 -15 22 -19 18 -122 -161z"/>
<path d="M10 4039 c0 -6 90 -166 200 -355 110 -190 200 -350 200 -355 0 -5 5
-9 10 -9 6 0 10 -4 10 -9 0 -11 151 -273 155 -269 3 2 252 432 316 545 10 17
70 121 133 232 64 110 119 207 122 215 5 13 -64 15 -570 15 -365 -1 -576 -4
-576 -10z"/>
<path d="M1471 4027 c56 -106 571 -989 574 -985 2 2 264 456 325 563 71 125
211 366 229 395 11 19 21 38 21 42 0 3 -261 6 -580 6 l-580 1 11 -22z"/>
<path d="M2920 4044 c0 -3 69 -125 110 -194 15 -26 294 -509 305 -528 44 -77
150 -259 158 -269 7 -9 35 33 100 145 49 86 97 169 106 184 9 15 43 73 75 130
33 57 115 199 183 316 68 117 123 214 123 216 0 2 -261 3 -580 4 -319 0 -580
-1 -580 -4z"/>
<path d="M4386 4041 c-2 -3 68 -130 155 -281 87 -151 216 -375 286 -497 97
-168 131 -219 139 -210 6 7 25 37 41 67 39 71 278 486 354 613 33 54 59 100
59 102 0 2 20 37 44 78 24 41 51 88 60 105 l16 30 -575 0 c-317 0 -577 -3
-579 -7z"/>
<path d="M5844 4035 c3 -8 48 -89 102 -182 53 -92 108 -189 123 -214 332 -579
345 -600 359 -582 7 10 32 52 55 93 23 41 46 83 52 92 5 9 23 41 39 70 15 29
34 60 42 69 8 8 14 18 14 21 0 3 70 126 155 273 85 147 155 271 155 275 0 5 3
10 8 12 4 2 17 22 29 44 l22 42 -580 0 c-482 0 -580 -2 -575 -13z"/>
<path d="M1272 3893 c-22 -37 -49 -84 -60 -103 -11 -19 -43 -75 -72 -125 -29
-49 -64 -110 -78 -135 -14 -25 -89 -156 -168 -291 -78 -136 -147 -256 -153
-267 l-11 -20 580 0 c319 0 580 3 580 6 0 2 -37 68 -82 146 -45 77 -92 159
-104 181 -12 22 -59 103 -104 180 -45 77 -92 158 -104 180 -61 107 -178 310
-181 313 -2 2 -21 -27 -43 -65z"/>
<path d="M2757 3939 c-14 -23 -346 -597 -421 -729 -20 -36 -41 -72 -46 -80
-20 -31 -100 -171 -100 -174 0 -2 261 -4 580 -4 319 0 580 1 580 3 0 5 -67
123 -185 325 -56 96 -113 195 -127 220 -14 25 -60 106 -103 180 -43 74 -98
168 -121 209 -42 73 -42 73 -57 50z"/>
<path d="M3945 3472 c-154 -267 -283 -493 -287 -503 -6 -16 27 -17 565 -17
315 0 575 2 579 4 3 2 -32 70 -79 152 -47 81 -95 163 -105 182 -136 238 -374
648 -382 657 -8 8 -85 -117 -291 -475z"/>
<path d="M5642 3884 c-24 -42 -55 -97 -69 -122 -14 -26 -32 -54 -39 -63 -8 -8
-14 -19 -14 -22 0 -4 -22 -44 -49 -89 -87 -147 -352 -609 -357 -622 -4 -12 93
-14 570 -14 357 0 576 4 576 10 0 9 -555 976 -568 990 -4 4 -26 -27 -50 -68z"/>
<path d="M741 2780 c-4 -3 63 -126 149 -275 86 -148 211 -364 278 -480 66
-115 127 -218 135 -229 13 -17 18 -12 64 70 27 49 100 177 163 284 62 107 124
215 138 240 14 25 45 78 69 118 24 41 43 78 43 83 0 5 5 9 10 9 6 0 10 5 10
11 0 6 20 45 45 86 26 42 43 78 40 81 -7 8 -1134 9 -1144 2z"/>
<path d="M2201 2782 c-10 -3 0 -24 82 -162 27 -47 61 -105 75 -130 14 -25 75
-130 135 -235 61 -104 118 -203 127 -220 9 -16 29 -50 43 -75 15 -25 44 -75
64 -112 21 -38 40 -68 43 -68 3 0 48 76 101 168 54 92 181 312 283 490 103
178 189 328 192 335 3 9 -124 12 -566 12 -313 0 -574 -1 -579 -3z"/>
<path d="M3667 2782 c-19 -4 -22 -13 -8 -27 9 -10 127 -212 429 -737 76 -131
139 -238 142 -238 3 1 49 78 104 173 110 193 353 614 367 637 53 87 106 186
103 190 -6 5 -1110 7 -1137 2z"/>
<path d="M1965 2568 c-38 -66 -82 -142 -96 -167 -15 -25 -112 -194 -217 -376
l-191 -330 576 -3 c317 -1 578 -1 580 2 5 5 -568 996 -576 996 -3 0 -37 -55
-76 -122z"/>
<path d="M3250 2268 c-134 -233 -263 -456 -287 -496 -25 -41 -43 -76 -40 -78
2 -2 263 -3 580 -2 l577 3 -81 140 c-45 77 -91 158 -103 180 -13 22 -49 85
-81 140 -32 55 -97 168 -145 250 -47 83 -104 180 -125 218 -22 37 -42 67 -45
67 -3 0 -116 -190 -250 -422z"/>
<path d="M4947 2683 c-21 -38 -268 -466 -401 -697 -92 -159 -165 -290 -163
-292 2 -2 263 -3 580 -2 l576 3 -151 260 c-82 143 -164 285 -182 316 -115 204
-242 419 -248 419 -4 0 -9 -3 -11 -7z"/>
<path d="M1508 1520 l-47 -5 145 -250 c79 -137 210 -363 290 -502 l147 -252
81 142 c313 543 438 759 465 806 18 29 30 55 28 58 -7 6 -1053 9 -1109 3z"/>
<path d="M4423 1522 c-24 -2 -43 -5 -43 -7 0 -1 32 -58 72 -126 39 -68 110
-191 158 -274 47 -82 144 -250 214 -372 71 -123 131 -223 135 -223 6 0 63 97
139 235 19 33 37 65 42 70 4 6 19 30 32 55 14 25 49 86 78 135 29 50 65 113
81 140 15 28 68 120 117 205 50 85 89 157 87 158 -4 5 -1056 8 -1112 4z"/>
</g>
</svg>
